<mxfile host="app.diagrams.net" modified="2024-05-18T08:26:54.624Z" agent="Mozilla/5.0 (Windows NT 10.0; Win64; x64) AppleWebKit/537.36 (KHTML, like Gecko) Chrome/123.0.0.0 Safari/537.36 OPR/109.0.0.0" version="24.4.4" etag="KMCvscRS_GpulYZ23CxT" type="github">
  <diagram name="Page-1" id="p4AaPlcSBRJoAKIZlXjg">
    <mxGraphModel>
      <root>
        <mxCell id="0" />
        <mxCell id="1" parent="0" />
      </root>
    </mxGraphModel>
  </diagram>
</mxfile>
